<svg width="283" height="250" viewBox="0 0 283 250" fill="none" xmlns="http://www.w3.org/2000/svg">
<rect width="283" height="250" rx="20" fill="#4F12D1"/>
<path d="M56.5511 151H67.6222V129.369H88.9205V120.241H67.6222V107.764H91.2216V98.6364H56.5511V151ZM98.4638 151H109.356V111.727H98.4638V151ZM103.935 106.665C107.183 106.665 109.842 104.185 109.842 101.142C109.842 98.125 107.183 95.6449 103.935 95.6449C100.714 95.6449 98.0547 98.125 98.0547 101.142C98.0547 104.185 100.714 106.665 103.935 106.665ZM118.286 151H129.024V144.71H129.51C131.018 147.983 134.317 151.639 140.658 151.639C149.607 151.639 156.587 144.557 156.587 131.415C156.587 117.915 149.3 111.216 140.683 111.216C134.112 111.216 130.967 115.128 129.51 118.324H129.178V98.6364H118.286V151ZM128.947 131.364C128.947 124.358 131.913 119.884 137.206 119.884C142.601 119.884 145.464 124.562 145.464 131.364C145.464 138.216 142.55 142.972 137.206 142.972C131.964 142.972 128.947 138.369 128.947 131.364ZM181.752 151.767C191.468 151.767 198.013 147.037 199.548 139.75L189.474 139.085C188.374 142.077 185.562 143.636 181.931 143.636C176.485 143.636 173.033 140.031 173.033 134.176V134.151H199.778V131.159C199.778 117.812 191.698 111.216 181.317 111.216C169.761 111.216 162.269 119.423 162.269 131.543C162.269 143.994 169.658 151.767 181.752 151.767ZM173.033 127.401C173.263 122.926 176.664 119.347 181.496 119.347C186.227 119.347 189.499 122.722 189.525 127.401H173.033ZM206.886 151H217.778V128.781C217.778 123.949 221.306 120.625 226.113 120.625C227.621 120.625 229.692 120.881 230.715 121.213V111.548C229.744 111.318 228.388 111.165 227.289 111.165C222.891 111.165 219.286 113.722 217.854 118.58H217.445V111.727H206.886V151Z" fill="white"/>
</svg>
